<svg xmlns="http://www.w3.org/2000/svg" width="1024" height="1024" viewBox="0 0 1024 1024">
  <rect width="1024" height="1024" rx="224" fill="#211a18"/>
  <circle cx="512" cy="512" r="356" fill="#d86f32"/>
  <path d="M238 406h548c0 97-73 176-166 188v86h96v104H308V680h96v-86c-94-12-166-91-166-188Z" fill="#3c4b57"/>
  <path d="M310 322h404l72 84H238l72-84Z" fill="#e9c889"/>
  <path d="M517 263c-2-82 54-138 132-142-1 74-43 125-112 140 50-55 53-104 53-104s-32 56-73 106Z" fill="#7fb36b"/>
  <path d="M509 270c-72-20-112-72-109-143 77 7 127 59 125 139-39-50-70-102-70-102s3 52 54 106Z" fill="#9acb73"/>
  <rect x="478" y="247" width="68" height="105" rx="30" fill="#704933"/>
</svg>
